<mxfile host="app.diagrams.net" modified="2020-05-29T01:39:15.741Z" agent="5.0 (Windows NT 10.0; Win64; x64) AppleWebKit/537.36 (KHTML, like Gecko) Chrome/79.0.3945.117 Safari/537.36" etag="-qNrIitc4_-u-c2qdf9a" version="13.1.5" type="github">
  <diagram id="Lff7YvmYgtOwgRBLiUNm" name="Page-1">
    <mxGraphModel dx="1422" dy="772" grid="1" gridSize="10" guides="1" tooltips="1" connect="1" arrows="1" fold="1" page="1" pageScale="1" pageWidth="827" pageHeight="1169" math="0" shadow="0">
      <root>
        <mxCell id="0" />
        <mxCell id="1" parent="0" />
        <mxCell id="Yo-x4cgYG-3PW48Pr5Y--7" style="edgeStyle=orthogonalEdgeStyle;rounded=0;orthogonalLoop=1;jettySize=auto;html=1;entryX=0;entryY=0.5;entryDx=0;entryDy=0;" edge="1" parent="1" source="Yo-x4cgYG-3PW48Pr5Y--1" target="Yo-x4cgYG-3PW48Pr5Y--6">
          <mxGeometry relative="1" as="geometry" />
        </mxCell>
        <mxCell id="Yo-x4cgYG-3PW48Pr5Y--1" value="" style="rounded=1;whiteSpace=wrap;html=1;" vertex="1" parent="1">
          <mxGeometry x="90" y="490" width="80" height="40" as="geometry" />
        </mxCell>
        <mxCell id="Yo-x4cgYG-3PW48Pr5Y--8" style="edgeStyle=orthogonalEdgeStyle;rounded=0;orthogonalLoop=1;jettySize=auto;html=1;entryX=1;entryY=0.5;entryDx=0;entryDy=0;" edge="1" parent="1" source="Yo-x4cgYG-3PW48Pr5Y--2" target="Yo-x4cgYG-3PW48Pr5Y--6">
          <mxGeometry relative="1" as="geometry" />
        </mxCell>
        <mxCell id="Yo-x4cgYG-3PW48Pr5Y--2" value="" style="rounded=1;whiteSpace=wrap;html=1;" vertex="1" parent="1">
          <mxGeometry x="240" y="490" width="80" height="40" as="geometry" />
        </mxCell>
        <mxCell id="Yo-x4cgYG-3PW48Pr5Y--11" style="edgeStyle=orthogonalEdgeStyle;rounded=0;orthogonalLoop=1;jettySize=auto;html=1;entryX=0;entryY=0.5;entryDx=0;entryDy=0;" edge="1" parent="1" source="Yo-x4cgYG-3PW48Pr5Y--3" target="Yo-x4cgYG-3PW48Pr5Y--9">
          <mxGeometry relative="1" as="geometry" />
        </mxCell>
        <mxCell id="Yo-x4cgYG-3PW48Pr5Y--3" value="" style="rounded=1;whiteSpace=wrap;html=1;" vertex="1" parent="1">
          <mxGeometry x="380" y="490" width="80" height="40" as="geometry" />
        </mxCell>
        <mxCell id="Yo-x4cgYG-3PW48Pr5Y--12" style="edgeStyle=orthogonalEdgeStyle;rounded=0;orthogonalLoop=1;jettySize=auto;html=1;entryX=1;entryY=0.5;entryDx=0;entryDy=0;" edge="1" parent="1" source="Yo-x4cgYG-3PW48Pr5Y--4" target="Yo-x4cgYG-3PW48Pr5Y--9">
          <mxGeometry relative="1" as="geometry" />
        </mxCell>
        <mxCell id="Yo-x4cgYG-3PW48Pr5Y--4" value="" style="rounded=1;whiteSpace=wrap;html=1;" vertex="1" parent="1">
          <mxGeometry x="520" y="490" width="80" height="40" as="geometry" />
        </mxCell>
        <mxCell id="Yo-x4cgYG-3PW48Pr5Y--6" value="" style="ellipse;whiteSpace=wrap;html=1;" vertex="1" parent="1">
          <mxGeometry x="170" y="590" width="75" height="50" as="geometry" />
        </mxCell>
        <mxCell id="Yo-x4cgYG-3PW48Pr5Y--9" value="" style="ellipse;whiteSpace=wrap;html=1;" vertex="1" parent="1">
          <mxGeometry x="450" y="590" width="75" height="50" as="geometry" />
        </mxCell>
      </root>
    </mxGraphModel>
  </diagram>
</mxfile>
